<svg width="112" height="155" viewBox="0 0 112 155" fill="none" xmlns="http://www.w3.org/2000/svg">
<ellipse cx="56" cy="54.5" rx="56" ry="54.5" fill="#42EAF5"/>
<path d="M15.6277 140.027C15.5115 141.633 14.9167 142.898 13.8435 143.821C12.7771 144.744 11.3689 145.205 9.61887 145.205C7.70481 145.205 6.19749 144.562 5.0969 143.277C4.00315 141.985 3.45628 140.215 3.45628 137.966V137.053C3.45628 135.618 3.70921 134.353 4.21507 133.259C4.72092 132.166 5.44212 131.328 6.37864 130.747C7.322 130.159 8.41575 129.865 9.65989 129.865C11.3825 129.865 12.7702 130.327 13.823 131.25C14.8757 132.172 15.4841 133.468 15.6482 135.136H12.572C12.4968 134.172 12.2268 133.475 11.7619 133.044C11.3039 132.606 10.6032 132.388 9.65989 132.388C8.6345 132.388 7.86546 132.757 7.35276 133.495C6.8469 134.227 6.58714 135.365 6.57346 136.91V138.038C6.57346 139.651 6.81614 140.83 7.30149 141.575C7.79368 142.32 8.56614 142.693 9.61887 142.693C10.5691 142.693 11.2766 142.478 11.7414 142.047C12.2131 141.609 12.4831 140.936 12.5515 140.027H15.6277ZM29.9114 137.874C29.9114 139.343 29.6516 140.632 29.1321 141.739C28.6125 142.847 27.8674 143.701 26.8967 144.303C25.9328 144.904 24.8254 145.205 23.5744 145.205C22.3371 145.205 21.2331 144.908 20.2624 144.313C19.2917 143.718 18.5398 142.871 18.0066 141.77C17.4734 140.663 17.2033 139.391 17.1965 137.956V137.217C17.1965 135.748 17.4597 134.456 17.9861 133.341C18.5193 132.22 19.2678 131.362 20.2317 130.768C21.2024 130.166 22.3098 129.865 23.5539 129.865C24.7981 129.865 25.9021 130.166 26.8659 130.768C27.8366 131.362 28.5852 132.22 29.1115 133.341C29.6448 134.456 29.9114 135.744 29.9114 137.207V137.874ZM26.7942 137.197C26.7942 135.631 26.5139 134.442 25.9533 133.628C25.3928 132.815 24.593 132.408 23.5539 132.408C22.5217 132.408 21.7253 132.812 21.1648 133.618C20.6042 134.418 20.3205 135.594 20.3137 137.146V137.874C20.3137 139.398 20.594 140.581 21.1545 141.421C21.7151 142.262 22.5217 142.683 23.5744 142.683C24.6067 142.683 25.3996 142.279 25.9533 141.473C26.5071 140.659 26.7873 139.477 26.7942 137.925V137.197ZM36.1662 130.07L40.0012 140.898L43.8157 130.07H47.8557V145H44.7693V140.919L45.0769 133.875L41.0471 145H38.9348L34.9153 133.885L35.2229 140.919V145H32.1467V130.07H36.1662ZM53.6184 139.74V145H50.5422V130.07H56.3664C57.4875 130.07 58.4719 130.275 59.3196 130.686C60.174 131.096 60.8303 131.68 61.2883 132.439C61.7463 133.191 61.9753 134.049 61.9753 135.013C61.9753 136.476 61.4729 137.631 60.468 138.479C59.4699 139.319 58.0857 139.74 56.3152 139.74H53.6184ZM53.6184 137.248H56.3664C57.1799 137.248 57.7986 137.057 58.2224 136.674C58.6531 136.291 58.8684 135.744 58.8684 135.033C58.8684 134.302 58.6531 133.71 58.2224 133.259C57.7917 132.808 57.197 132.576 56.4382 132.562H53.6184V137.248ZM70.7014 141.924H65.3078L64.2824 145H61.0115L66.5691 130.07H69.4197L75.008 145H71.737L70.7014 141.924ZM66.1384 139.432H69.8708L67.9944 133.844L66.1384 139.432ZM88.5432 145H85.467L79.4787 135.177V145H76.4026V130.07H79.4787L85.4773 139.914V130.07H88.5432V145ZM86.3694 126.215C86.3694 126.987 86.1438 127.637 85.6926 128.163C85.2414 128.683 84.6911 128.942 84.0417 128.942C83.782 128.942 83.5495 128.915 83.3445 128.86C83.1462 128.799 82.8694 128.672 82.5139 128.481C82.1584 128.29 81.9021 128.173 81.7449 128.132C81.5876 128.084 81.4167 128.061 81.2322 128.061C80.9929 128.061 80.7878 128.146 80.6169 128.317C80.4529 128.488 80.3708 128.73 80.3708 129.045L78.6482 128.942C78.6482 128.184 78.8703 127.538 79.3147 127.004C79.7658 126.471 80.3161 126.205 80.9656 126.205C81.1706 126.205 81.362 126.232 81.5398 126.287C81.7243 126.334 82.0217 126.458 82.4319 126.656C82.842 126.854 83.1257 126.974 83.2829 127.015C83.4402 127.056 83.6042 127.076 83.7751 127.076C84.0144 127.076 84.2195 126.994 84.3904 126.83C84.5681 126.659 84.657 126.417 84.657 126.102L86.3694 126.215ZM94.5007 145H91.4245V130.07H94.5007V145ZM105.975 141.924H100.581L99.5559 145H96.2849L101.843 130.07H104.693L110.281 145H107.01L105.975 141.924ZM101.412 139.432H105.144L103.268 133.844L101.412 139.432Z" fill="black"/>
<path d="M108.719 78.5566H104.781V71.5312C104.781 69.7677 103.312 68.3379 101.5 68.3379C99.6879 68.3379 98.2188 69.7677 98.2188 71.5312V78.5566H93.8438V109H108.719C110.531 109 112 107.57 112 105.807V81.75C112 79.9864 110.531 78.5566 108.719 78.5566Z" fill="black"/>
<path d="M18.1562 78.5566H13.7812V71.5312C13.7812 69.7677 12.3121 68.3379 10.5 68.3379C8.68787 68.3379 7.21875 69.7677 7.21875 71.5312V78.5566H3.28125C1.46912 78.5566 0 79.9864 0 81.75V105.807C0 107.57 1.46912 109 3.28125 109H18.1562V78.5566Z" fill="black"/>
<path d="M24.7188 109H40.4688V91.9688C40.4688 90.2052 41.9379 88.7754 43.75 88.7754H68.25C70.0621 88.7754 71.5312 90.2052 71.5312 91.9688V109H87.2812C87.2812 103.721 87.2812 8.06706 87.2812 3.19336C87.2812 1.42977 85.8121 0 84 0H28C26.1879 0 24.7188 1.42977 24.7188 3.19336V109ZM47.25 74.7246H43.75C41.9379 74.7246 40.4688 73.2948 40.4688 71.5312C40.4688 69.7677 41.9379 68.3379 43.75 68.3379H47.25C49.0621 68.3379 50.5312 69.7677 50.5312 71.5312C50.5312 73.2948 49.0621 74.7246 47.25 74.7246ZM47.25 61.0996H43.75C41.9379 61.0996 40.4688 59.6698 40.4688 57.9062C40.4688 56.1427 41.9379 54.7129 43.75 54.7129H47.25C49.0621 54.7129 50.5312 56.1427 50.5312 57.9062C50.5312 59.6698 49.0621 61.0996 47.25 61.0996ZM47.25 47.4746H43.75C41.9379 47.4746 40.4688 46.0448 40.4688 44.2812C40.4688 42.5177 41.9379 41.0879 43.75 41.0879H47.25C49.0621 41.0879 50.5312 42.5177 50.5312 44.2812C50.5312 46.0448 49.0621 47.4746 47.25 47.4746ZM47.25 33.8496H43.75C41.9379 33.8496 40.4688 32.4198 40.4688 30.6562C40.4688 28.8927 41.9379 27.4629 43.75 27.4629H47.25C49.0621 27.4629 50.5312 28.8927 50.5312 30.6562C50.5312 32.4198 49.0621 33.8496 47.25 33.8496ZM68.25 74.7246H64.75C62.9379 74.7246 61.4688 73.2948 61.4688 71.5312C61.4688 69.7677 62.9379 68.3379 64.75 68.3379H68.25C70.0621 68.3379 71.5312 69.7677 71.5312 71.5312C71.5312 73.2948 70.0621 74.7246 68.25 74.7246ZM68.25 61.0996H64.75C62.9379 61.0996 61.4688 59.6698 61.4688 57.9062C61.4688 56.1427 62.9379 54.7129 64.75 54.7129H68.25C70.0621 54.7129 71.5312 56.1427 71.5312 57.9062C71.5312 59.6698 70.0621 61.0996 68.25 61.0996ZM68.25 47.4746H64.75C62.9379 47.4746 61.4688 46.0448 61.4688 44.2812C61.4688 42.5177 62.9379 41.0879 64.75 41.0879H68.25C70.0621 41.0879 71.5312 42.5177 71.5312 44.2812C71.5312 46.0448 70.0621 47.4746 68.25 47.4746ZM68.25 33.8496H64.75C62.9379 33.8496 61.4688 32.4198 61.4688 30.6562C61.4688 28.8927 62.9379 27.4629 64.75 27.4629H68.25C70.0621 27.4629 71.5312 28.8927 71.5312 30.6562C71.5312 32.4198 70.0621 33.8496 68.25 33.8496ZM42 13.8379H70C71.8121 13.8379 73.2812 15.2677 73.2812 17.0312C73.2812 18.7948 71.8121 20.2246 70 20.2246H42C40.1879 20.2246 38.7188 18.7948 38.7188 17.0312C38.7188 15.2677 40.1879 13.8379 42 13.8379Z" fill="black"/>
<path d="M47.0312 109H64.9688V95.1621H47.0312V109Z" fill="black"/>
</svg>
