<svg width="50" height="50" viewBox="0 0 50 50" fill="none" xmlns="http://www.w3.org/2000/svg">
<g clip-path="url(#clip0)">
<path d="M31.4829 12.5037C31.8417 12.7007 32.1509 12.9556 32.3929 13.2537C32.5065 13.1135 32.6354 12.9825 32.7779 12.8626C32.4689 12.6494 32.1471 12.4498 31.8137 12.2646C31.7093 12.3499 31.5988 12.4297 31.4829 12.5037Z" fill="#010101"/>
<path d="M37.6358 21.271C37.6098 21.1383 37.5805 21.0018 37.5469 20.8626C37.373 19.1907 36.8035 17.5652 35.8723 16.0824L34.1651 14.6337L34.5154 14.3379C34.226 14.0354 33.9164 13.747 33.5881 13.4743C33.329 13.6778 33.1337 13.9323 33.0198 14.2152L32.3972 15.7912L31.7746 14.2152C31.6677 13.9481 31.4889 13.7056 31.2521 13.5068C31.0153 13.308 30.7271 13.1583 30.4102 13.0696L28.5447 12.543L30.0718 12.1126C30.3417 12.0319 30.5955 11.917 30.8245 11.772C28.9178 10.9157 26.4796 10.3562 23.3408 10.3562C12.0458 10.3562 10.2508 17.5604 9.96662 20.0394C9.94276 20.2436 9.92975 20.4157 9.92215 20.5485C9.90588 20.7454 9.88853 20.9844 9.87226 21.2353C-1.01928 21.8763 3.36467 32.989 3.36467 32.989H13.6684L13.6814 32.9185L14.2237 32.989H16.112C16.3192 32.8719 16.4884 32.7129 16.6044 32.5265L16.9883 31.8937L17.1608 32.7491C17.1876 32.8335 17.2285 32.9143 17.2822 32.989H43.6987C43.6987 32.989 47.9536 22.1895 37.6358 21.271ZM15.5219 32.6062L14.5838 31.5265L15.036 31.2463L15.9742 32.326L15.5219 32.6062ZM18.1315 32.9414L17.7996 32.5595L19.0783 31.7674L19.4102 32.1483L18.1315 32.9414ZM27.5545 12.9487H26.4796V12.0403H27.5545V12.9487Z" fill="#010101"/>
<path d="M32.3485 11.7729C32.5822 12.0757 32.884 12.3367 33.2368 12.5413C33.0724 12.6362 32.9188 12.7438 32.778 12.8627C33.0644 13.0596 33.3312 13.2638 33.5839 13.4744C33.809 13.2909 34.0794 13.1518 34.3756 13.0669L36.2422 12.5404L34.3756 12.0165C34.0598 11.9271 33.7727 11.7773 33.5368 11.5787C33.3008 11.3802 33.1225 11.1382 33.0155 10.8718L32.393 9.29309L31.8876 10.5816C31.6921 11.0624 31.3221 11.479 30.8301 11.772C31.1771 11.9277 31.508 12.0925 31.8192 12.2665C32.015 12.1176 32.1924 11.9522 32.3485 11.7729Z" fill="#010101"/>
<path d="M32.9293 7.50452H31.8545V8.41203H32.9293V7.50452Z" fill="#010101"/>
<path d="M28.4724 8.54653L27.7124 9.18823L29.8621 11.0033L30.6221 10.3616L28.4724 8.54653Z" fill="#010101"/>
<path d="M36.3103 16.4497L37.0695 15.8087L34.9241 13.9918L34.5142 14.338C35.0337 14.8817 35.491 15.4658 35.8797 16.0825L36.3103 16.4497Z" fill="#010101"/>
<path d="M36.3103 8.54617L34.1606 10.3612L34.9207 11.0029L37.0704 9.18787L36.3103 8.54617Z" fill="#010101"/>
<path d="M15.5297 33.1914L14.7021 33.3077L15.6143 33.7033C15.769 33.7707 15.903 33.8675 16.0059 33.9861C16.1089 34.1046 16.1779 34.2416 16.2076 34.3865L16.3811 35.2408L16.8497 34.4698C16.9296 34.3392 17.0442 34.2259 17.1846 34.1388C17.3249 34.0518 17.4872 33.9933 17.6588 33.968L18.6707 33.8214L17.7575 33.4267C17.5465 33.3268 17.3803 33.1711 17.2846 32.9835H16.1143C15.9396 33.0878 15.7401 33.1588 15.5297 33.1914ZM16.7358 33.1703C16.8266 33.3431 16.9575 33.4988 17.1208 33.6282C16.9321 33.705 16.7619 33.8105 16.6186 33.9396C16.5219 33.77 16.3867 33.6182 16.2206 33.4927C16.4108 33.4081 16.5846 33.2994 16.7358 33.1703Z" fill="#010101"/>
<path d="M13.5986 33.3846L14.1529 33.457L14.2375 32.9881L14.2255 32.9872H13.6702L13.5986 33.3846Z" fill="#010101"/>
<path d="M16.0298 35.6153L15.9448 36.0833L16.4991 36.155L16.5841 35.6871L16.0298 35.6153Z" fill="#010101"/>
<path d="M15.239 34.3145L13.9546 35.1044L14.2854 35.4879L15.5698 34.6979L15.239 34.3145Z" fill="#010101"/>
<path d="M17.8519 34.484L17.3999 34.7642L18.3382 35.8434L18.7902 35.5633L17.8519 34.484Z" fill="#010101"/>
<path d="M19.2271 33.6336L19.1421 34.1016L19.6963 34.1733L19.7814 33.7054L19.2271 33.6336Z" fill="#010101"/>
<path d="M12.9069 32.9872C12.9069 34.4606 11.6933 35.6658 10.2095 35.6658H8.5425C7.05986 35.6658 5.84619 34.4606 5.84619 32.9872" fill="black"/>
<path d="M12.7301 20.8672H34.7356C34.7356 20.8672 34.2811 12.4972 23.4221 12.4972C12.5631 12.4972 12.7301 20.8672 12.7301 20.8672Z" fill="white"/>
<path d="M7.99649 29.988C9.91271 29.988 11.4661 28.6764 11.4661 27.0585C11.4661 25.4406 9.91271 24.129 7.99649 24.129C6.08026 24.129 4.52686 25.4406 4.52686 27.0585C4.52686 28.6764 6.08026 29.988 7.99649 29.988Z" fill="#FDFDFD"/>
<path d="M41.081 32.9872C41.081 34.4606 39.8673 35.6658 38.3836 35.6658H36.7188C35.2361 35.6658 34.0225 34.4606 34.0225 32.9872" fill="black"/>
<path d="M38.205 29.988C40.1212 29.988 41.6746 28.6764 41.6746 27.0585C41.6746 25.4406 40.1212 24.129 38.205 24.129C36.2888 24.129 34.7354 25.4406 34.7354 27.0585C34.7354 28.6764 36.2888 29.988 38.205 29.988Z" fill="#FDFDFD"/>
<path d="M7.99693 29.0193C9.27941 29.0193 10.3191 28.1415 10.3191 27.0586C10.3191 25.9758 9.27941 25.098 7.99693 25.098C6.71446 25.098 5.6748 25.9758 5.6748 27.0586C5.6748 28.1415 6.71446 29.0193 7.99693 29.0193Z" fill="black"/>
<path d="M36.6511 22.3746L36.1934 21.1282L38.3853 19.4799C38.2138 19.1519 38.1626 18.788 38.2386 18.4352C38.3146 18.0824 38.5142 17.757 38.8116 17.501L40.2302 16.3041C40.6331 15.9643 41.1793 15.7734 41.7487 15.7734C42.3181 15.7734 42.8643 15.9643 43.2671 16.3041L43.3094 16.3389C43.7119 16.679 43.9379 17.1401 43.9379 17.6209C43.9379 18.1017 43.7119 18.5628 43.3094 18.903L41.8908 20.1017C41.5417 20.3899 41.0868 20.569 40.601 20.6096C40.1152 20.6502 39.6275 20.5499 39.2183 20.3251L36.6511 22.3746ZM36.932 21.3004L36.9602 21.3773L39.0014 19.7436L36.932 21.3004ZM39.1858 19.6054L39.4027 19.761C39.687 19.9694 40.0536 20.0802 40.4299 20.0714C40.8063 20.0626 41.1651 19.9348 41.4352 19.7134L42.8528 18.5156C43.134 18.2777 43.292 17.9552 43.292 17.6191C43.292 17.2829 43.134 16.9605 42.8528 16.7226L42.8116 16.6878C42.5296 16.4505 42.1478 16.3174 41.7498 16.3174C41.3517 16.3174 40.9699 16.4505 40.6879 16.6878L39.2628 17.8856C39.035 18.0848 38.8914 18.342 38.8544 18.6172C38.8173 18.8924 38.8888 19.1702 39.0578 19.4075L39.1901 19.5999L39.1858 19.6054Z" fill="black"/>
<path d="M10.6191 22.3745L8.05404 20.3232C7.64491 20.5484 7.15702 20.6489 6.67106 20.6081C6.18511 20.5673 5.7302 20.3876 5.38159 20.0989L3.96294 18.9002C3.56051 18.56 3.33447 18.0989 3.33447 17.6181C3.33447 17.1373 3.56051 16.6762 3.96294 16.3361L4.00524 16.3013C4.40811 15.9615 4.95425 15.7706 5.52367 15.7706C6.0931 15.7706 6.63924 15.9615 7.04211 16.3013L8.45968 17.5C8.7571 17.7562 8.95661 18.0818 9.03241 18.4348C9.10821 18.7877 9.0568 19.1518 8.88484 19.4798L11.0768 21.1282L10.6191 22.3745ZM8.26771 19.7436L10.31 21.3773L10.3382 21.3003L8.26771 19.7436ZM5.52259 16.3168C5.32576 16.3159 5.13065 16.3478 4.94844 16.4106C4.76623 16.4735 4.6005 16.5661 4.46077 16.6831L4.41955 16.7179C4.13833 16.9559 3.9804 17.2783 3.9804 17.6144C3.9804 17.9506 4.13833 18.273 4.41955 18.511L5.83712 19.7088C6.10691 19.9307 6.46566 20.0589 6.84218 20.0679C7.21869 20.0768 7.58544 19.966 7.86966 19.7573L8.08658 19.6007L8.07899 19.5952L8.21131 19.4029C8.38029 19.1655 8.45179 18.8877 8.41473 18.6125C8.37766 18.3374 8.23411 18.0802 8.00632 17.8809L6.58441 16.6877C6.44505 16.5699 6.27951 16.4765 6.0973 16.4129C5.91508 16.3492 5.71978 16.3166 5.52259 16.3168Z" fill="black"/>
<path d="M43.0794 16.5302L43.0371 16.4955C42.6944 16.2077 42.2308 16.0461 41.7475 16.0461C41.2642 16.0461 40.8005 16.2077 40.4579 16.4955L39.0392 17.6933C38.7599 17.9343 38.5832 18.2468 38.5369 18.5817C38.4906 18.9166 38.5772 19.2551 38.7833 19.544L36.562 21.2143L36.805 21.8755L39.1911 19.968C39.5362 20.2224 39.9824 20.3574 40.4404 20.3459C40.8983 20.3343 41.3342 20.1771 41.6607 19.9057L43.0794 18.7079C43.4202 18.4186 43.6115 18.0271 43.6115 17.6191C43.6115 17.211 43.4202 16.8196 43.0794 16.5302Z" fill="black"/>
<path d="M4.19133 16.5302L4.23363 16.4955C4.57628 16.2077 5.03992 16.0461 5.52322 16.0461C6.00651 16.0461 6.47016 16.2077 6.81281 16.4955L8.23146 17.6933C8.51079 17.9343 8.68748 18.2468 8.7338 18.5817C8.78013 18.9166 8.69347 19.2551 8.48743 19.544L10.7087 21.2143L10.4657 21.8755L8.07962 19.968C7.73453 20.2224 7.2883 20.3574 6.83033 20.3459C6.37236 20.3343 5.93647 20.1771 5.60999 19.9057L4.19133 18.7079C3.8505 18.4186 3.65918 18.0271 3.65918 17.6191C3.65918 17.211 3.8505 16.8196 4.19133 16.5302Z" fill="black"/>
<path d="M31.8545 16.5824H32.9293V17.4899H31.8545V16.5824Z" fill="#010101"/>
<path d="M27.7104 15.8068L29.8601 13.9918L30.6193 14.6328L28.4708 16.4488L27.7104 15.8068Z" fill="#010101"/>
<path d="M29.6802 25.0265H17.626V25.8296H29.6802V25.0265Z" fill="white"/>
<path d="M29.6802 28.2856H17.626V29.0888H29.6802V28.2856Z" fill="white"/>
<path d="M30.949 26.619H16.5151V27.4981H30.949V26.619Z" fill="white"/>
<path d="M17.1237 5.5834L15.2647 4.81966C14.9499 4.68897 14.6751 4.49866 14.4618 4.26357C14.2485 4.02848 14.1023 3.75497 14.0348 3.46435L13.6454 1.74731L12.9068 3.03486C12.7011 3.38872 12.4012 3.69755 12.0305 3.93714C11.6598 4.17673 11.2284 4.34057 10.7701 4.41581L9.10742 4.68504L10.9653 5.45153C11.2803 5.58187 11.5552 5.77209 11.7684 6.00725C11.9816 6.24241 12.1274 6.5161 12.1942 6.80684L12.5814 8.52112L13.4881 6.95244C13.6424 6.68638 13.8677 6.45414 14.1462 6.27396C14.4247 6.09378 14.7489 5.97056 15.0933 5.91398L17.1237 5.5834ZM12.9957 5.87735C12.7926 5.53903 12.5125 5.23782 12.1714 4.9909C12.5503 4.81672 12.895 4.59399 13.1931 4.33065C13.3867 4.67278 13.6579 4.97954 13.9914 5.23358C13.6157 5.39503 13.2782 5.61322 12.9957 5.87735Z" fill="#010101"/>
<path d="M7.03238 3.92578L8.15277 4.05124L8.00418 4.99721L6.88379 4.87175L7.03238 3.92578Z" fill="#010101"/>
<path d="M11.8908 9.28296L13.0155 9.40659L12.8669 10.3526L11.7422 10.2308L11.8908 9.28296Z" fill="#010101"/>
<path d="M8.77881 1.0934L9.67686 0.512817L11.6194 2.65567L10.7224 3.23626L8.77881 1.0934Z" fill="#010101"/>
<path d="M7.69385 7.99076L10.2318 6.34973L10.9184 7.10706L8.38148 8.74808L7.69385 7.99076Z" fill="#010101"/>
<path d="M14.6074 7.52199L15.5055 6.94141L17.448 9.08426L16.551 9.66393L14.6074 7.52199Z" fill="#010101"/>
<path d="M15.3081 3.06961L17.8461 1.42859L18.5326 2.18683L15.9957 3.82694L15.3081 3.06961Z" fill="#010101"/>
<path d="M18.2355 5.18127L19.3559 5.30673L19.2073 6.2527L18.0869 6.12725L18.2355 5.18127Z" fill="#010101"/>
<path d="M13.4274 0.0153893L13.25 1.15588L14.1573 1.25648L14.3347 0.115984L13.4274 0.0153893Z" fill="#010101"/>
<path d="M38.2049 29.0193C39.4874 29.0193 40.5271 28.1415 40.5271 27.0586C40.5271 25.9758 39.4874 25.098 38.2049 25.098C36.9225 25.098 35.8828 25.9758 35.8828 27.0586C35.8828 28.1415 36.9225 29.0193 38.2049 29.0193Z" fill="black"/>
</g>
<g clip-path="url(#clip1)">
<path d="M8.08731 44.6753V46.3125H0.204102V36.2827H2.97198V44.6753H8.08731ZM18.7655 46.2388C18.0998 46.3666 17.4925 46.4305 16.9436 46.4305C15.8575 46.4305 15.1626 46.1158 14.859 45.4865C14.3568 45.8012 13.8546 46.0421 13.3524 46.2093C12.8619 46.3666 12.3363 46.4453 11.7757 46.4453C11.2619 46.4453 10.8006 46.3568 10.3918 46.1798C9.98304 46.0028 9.66187 45.7619 9.4283 45.457C9.2064 45.1424 9.09545 44.7982 9.09545 44.4245C9.09545 43.8346 9.27647 43.3626 9.63852 43.0086C10.0006 42.6447 10.4969 42.3547 11.1276 42.1383C11.7582 41.9122 12.6925 41.6516 13.9305 41.3566L14.6663 41.1796V40.9879C14.6663 40.0144 14.1641 39.5276 13.1597 39.5276C12.6575 39.5276 12.1378 39.6211 11.6006 39.8079C11.0633 39.9849 10.4502 40.2897 9.76115 40.7224L9.16553 39.1884C10.7772 38.3034 12.3889 37.8609 14.0006 37.8609C15.0867 37.8609 15.91 38.1117 16.4706 38.6132C17.0429 39.1048 17.329 39.9406 17.329 41.1206V44.1885C17.329 44.4049 17.3757 44.5622 17.4692 44.6605C17.5743 44.749 17.7436 44.7933 17.9772 44.7933C18.1757 44.7933 18.4035 44.7638 18.6604 44.7048L18.7655 46.2388ZM11.7757 44.1443C11.7757 44.5966 12.0736 44.8228 12.6692 44.8228C12.9728 44.8228 13.2823 44.7687 13.5976 44.6605C13.913 44.5425 14.2692 44.3754 14.6663 44.1591V42.4628L14.2108 42.5956C13.2882 42.8611 12.6517 43.1069 12.3013 43.3331C11.9509 43.5494 11.7757 43.8198 11.7757 44.1443ZM29.2867 46.2388C28.621 46.3666 28.0137 46.4305 27.4648 46.4305C26.3787 46.4305 25.6838 46.1158 25.3802 45.4865C24.878 45.8012 24.3758 46.0421 23.8736 46.2093C23.3831 46.3666 22.8575 46.4453 22.2969 46.4453C21.7831 46.4453 21.3218 46.3568 20.913 46.1798C20.5042 46.0028 20.1831 45.7619 19.9495 45.457C19.7276 45.1424 19.6167 44.7982 19.6167 44.4245C19.6167 43.8346 19.7977 43.3626 20.1597 43.0086C20.5218 42.6447 21.0181 42.3547 21.6488 42.1383C22.2794 41.9122 23.2137 41.6516 24.4517 41.3566L25.1875 41.1796V40.9879C25.1875 40.0144 24.6853 39.5276 23.6809 39.5276C23.1787 39.5276 22.659 39.6211 22.1218 39.8079C21.5845 39.9849 20.9714 40.2897 20.2824 40.7224L19.6867 39.1884C21.2984 38.3034 22.9101 37.8609 24.5218 37.8609C25.6079 37.8609 26.4313 38.1117 26.9918 38.6132C27.5641 39.1048 27.8502 39.9406 27.8502 41.1206V44.1885C27.8502 44.4049 27.8969 44.5622 27.9904 44.6605C28.0955 44.749 28.2648 44.7933 28.4984 44.7933C28.697 44.7933 28.9247 44.7638 29.1816 44.7048L29.2867 46.2388ZM22.2969 44.1443C22.2969 44.5966 22.5948 44.8228 23.1904 44.8228C23.494 44.8228 23.8035 44.7687 24.1188 44.6605C24.4342 44.5425 24.7904 44.3754 25.1875 44.1591V42.4628L24.732 42.5956C23.8094 42.8611 23.1729 43.1069 22.8225 43.3331C22.4721 43.5494 22.2969 43.8198 22.2969 44.1443ZM35.9539 37.8609C36.83 37.8609 37.6067 38.033 38.284 38.3772C38.9614 38.7115 39.4866 39.2081 39.8607 39.8669C40.2461 40.5159 40.4388 41.2927 40.4388 42.1973C40.4388 43.6723 39.9366 44.7589 38.9322 45.457C37.9395 46.1552 36.6198 46.5043 34.9729 46.5043C34.4123 46.5043 33.9393 46.46 33.5539 46.3715V49.7492H30.8736V38.0527H32.8707L33.1335 38.6722C33.9744 38.1313 34.9145 37.8609 35.9539 37.8609ZM34.7977 44.8818C36.7599 44.8818 37.741 43.9673 37.741 42.1383C37.741 41.1845 37.5424 40.506 37.1453 40.1029C36.7599 39.6997 36.2634 39.4981 35.6561 39.4981C35.2357 39.4981 34.8619 39.5424 34.5349 39.6309C34.2079 39.7096 33.8809 39.8423 33.5539 40.0291V44.749C33.9977 44.8375 34.4123 44.8818 34.7977 44.8818ZM45.3942 46.5043C44.7402 46.5043 44.1096 46.4502 43.5023 46.342C42.895 46.2338 42.3636 46.0913 41.9081 45.9143L42.4512 44.3508C43.4906 44.7048 44.4599 44.8818 45.3592 44.8818C45.8964 44.8818 46.3286 44.813 46.6556 44.6753C46.9942 44.5278 47.1636 44.3065 47.1636 44.0116C47.1636 43.7657 47.0059 43.5641 46.6906 43.4068C46.3869 43.2495 45.9023 43.0725 45.2366 42.8758C44.5826 42.6792 44.0512 42.4973 43.6424 42.3301C43.2337 42.1531 42.8775 41.9171 42.5738 41.6221C42.2818 41.3173 42.1359 40.9436 42.1359 40.5011C42.1359 39.6358 42.5096 38.9819 43.257 38.5394C44.0045 38.0871 45.0205 37.8609 46.3052 37.8609C46.8424 37.8609 47.3855 37.9101 47.9344 38.0084C48.4833 38.0969 48.968 38.2248 49.3884 38.3919L48.8278 39.9701C47.9869 39.6555 47.1694 39.4981 46.3753 39.4981C45.8731 39.4981 45.4818 39.5621 45.2015 39.6899C44.9213 39.8079 44.7811 39.9898 44.7811 40.2356C44.7811 40.4815 44.9271 40.6781 45.2191 40.8256C45.511 40.9633 45.9724 41.1206 46.603 41.2976C47.257 41.4746 47.8001 41.6516 48.2322 41.8286C48.6643 42.0056 49.0322 42.2613 49.3359 42.5956C49.6512 42.9299 49.8088 43.3527 49.8088 43.8641C49.8088 44.69 49.4293 45.339 48.6702 45.811C47.911 46.2732 46.8191 46.5043 45.3942 46.5043Z" fill="black"/>
</g>
<defs>
<clipPath id="clip0">
<rect width="42.0727" height="36.1557" fill="white" transform="translate(2.49463)"/>
</clipPath>
<clipPath id="clip1">
<rect width="50" height="13.8278" fill="white" transform="translate(0 36.1721)"/>
</clipPath>
</defs>
</svg>
