<svg width="112" height="155" viewBox="0 0 112 155" fill="none" xmlns="http://www.w3.org/2000/svg">
<ellipse cx="56" cy="54.5" rx="56" ry="54.5" fill="#42EAF5"/>
<path d="M28.3117 140.027C28.1955 141.633 27.6008 142.898 26.5276 143.821C25.4612 144.744 24.053 145.205 22.303 145.205C20.3889 145.205 18.8816 144.562 17.781 143.277C16.6872 141.985 16.1404 140.215 16.1404 137.966V137.053C16.1404 135.618 16.3933 134.353 16.8991 133.259C17.405 132.166 18.1262 131.328 19.0627 130.747C20.0061 130.159 21.0998 129.865 22.344 129.865C24.0666 129.865 25.4543 130.327 26.5071 131.25C27.5598 132.172 28.1682 133.468 28.3323 135.136H25.2561C25.1809 134.172 24.9109 133.475 24.446 133.044C23.988 132.606 23.2873 132.388 22.344 132.388C21.3186 132.388 20.5495 132.757 20.0368 133.495C19.531 134.227 19.2712 135.365 19.2575 136.91V138.038C19.2575 139.651 19.5002 140.83 19.9856 141.575C20.4778 142.32 21.2502 142.693 22.303 142.693C23.2532 142.693 23.9607 142.478 24.4255 142.047C24.8972 141.609 25.1672 140.936 25.2356 140.027H28.3117ZM33.4079 142.529H39.9397V145H30.3318V130.07H33.4079V142.529ZM44.9846 145H41.9084V130.07H44.9846V145ZM56.8279 138.53H50.9216V142.529H57.8532V145H47.8454V130.07H57.8327V132.562H50.9216V136.12H56.8279V138.53ZM71.7986 145H68.7224L62.7341 135.177V145H59.6579V130.07H62.7341L68.7326 139.914V130.07H71.7986V145ZM85.4157 132.562H80.8425V145H77.7663V132.562H73.2546V130.07H85.4157V132.562ZM96.1618 138.53H90.2556V142.529H97.1872V145H87.1794V130.07H97.1667V132.562H90.2556V136.12H96.1618V138.53Z" fill="black"/>
<path d="M54.5668 62.5762C61.5481 62.5762 67.5933 60.0909 72.5327 55.1873C77.472 50.2846 79.9759 44.2858 79.9759 37.3554C79.9759 30.4275 77.472 24.4279 72.5319 19.5235C67.5917 14.6216 61.5473 12.1362 54.5668 12.1362C47.5847 12.1362 41.5411 14.6216 36.6018 19.5243C31.6624 24.4271 29.1577 30.4267 29.1577 37.3554C29.1577 44.2858 31.6624 50.2854 36.6026 55.1881C41.5427 60.0901 47.5872 62.5762 54.5668 62.5762Z" fill="black"/>
<path d="M98.7916 88.1902C98.6524 86.4352 98.3708 84.5209 97.9564 82.4994C97.538 80.4627 96.9993 78.5374 96.3544 76.7776C95.6883 74.9588 94.7823 73.1626 93.6625 71.4414C92.5001 69.6548 91.1348 68.0992 89.6029 66.819C88.0009 65.4798 86.0395 64.4031 83.7714 63.6177C81.5112 62.8364 79.0064 62.4406 76.327 62.4406C75.2748 62.4406 74.2571 62.8179 72.2918 63.9358C71.0823 64.625 69.6675 65.4221 68.0883 66.3037C66.738 67.0554 64.9088 67.7597 62.6493 68.3974C60.4449 69.0206 58.2067 69.3367 55.9976 69.3367C53.7885 69.3367 51.5511 69.0206 49.3444 68.3974C47.0873 67.7604 45.2581 67.0561 43.9093 66.3044C42.3451 65.431 40.9295 64.634 39.7019 63.9351C37.7389 62.8172 36.7205 62.4399 35.6683 62.4399C32.9881 62.4399 30.4841 62.8364 28.2246 63.6184C25.9581 64.4024 23.996 65.4791 22.3924 66.8197C20.8612 68.1005 19.4952 69.6555 18.3344 71.4414C17.2153 73.1626 16.3093 74.9581 15.6424 76.7783C14.9983 78.538 14.4596 80.4627 14.0412 82.4994C13.6268 84.5182 13.3452 86.4332 13.206 88.1922C13.0692 89.9156 13 91.7042 13 93.5106C13 98.212 14.7105 102.018 18.0835 104.825C21.4149 107.595 25.8229 109 31.1832 109H80.8168C86.1771 109 90.5836 107.595 93.9157 104.825C97.2895 102.02 99 98.2134 99 93.5099C98.9992 91.6952 98.9292 89.9053 98.7916 88.1902Z" fill="black"/>
</svg>
