<svg width="219" height="241" viewBox="0 0 219 241" fill="none" xmlns="http://www.w3.org/2000/svg">
<g clip-path="url(#clip0)">
<path d="M140.968 58.017C142.539 58.9312 143.894 60.1138 144.953 61.497C145.451 60.8464 146.016 60.2389 146.64 59.6826C145.287 58.6932 143.877 57.7671 142.417 56.908C141.959 57.3036 141.475 57.6739 140.968 58.017Z" fill="#010101"/>
<path d="M167.918 98.6977C167.804 98.0816 167.675 97.4485 167.528 96.8026C166.767 89.0448 164.272 81.5025 160.193 74.6224L152.716 67.9003L154.25 66.5279C152.983 65.1242 151.627 63.7864 150.189 62.521C149.054 63.465 148.198 64.6461 147.699 65.9585L144.973 73.2712L142.246 65.9585C141.778 64.7192 140.994 63.5941 139.957 62.6717C138.92 61.7493 137.658 61.0548 136.27 60.6429L128.099 58.1997L134.787 56.2026C135.969 55.828 137.081 55.295 138.084 54.6219C129.733 50.6491 119.054 48.0529 105.306 48.0529C55.8334 48.0529 47.9713 81.4804 46.7266 92.9827C46.6221 93.9302 46.5651 94.7291 46.5318 95.3452C46.4606 96.2587 46.3846 97.3678 46.3133 98.532C-1.39163 101.506 17.8101 153.069 17.8101 153.069H62.9402L62.9972 152.742L65.3725 153.069H73.6432C74.5507 152.526 75.2921 151.788 75.7999 150.923L77.4816 147.987L78.237 151.956C78.3546 152.347 78.5337 152.722 78.769 153.069H194.473C194.473 153.069 213.11 102.96 167.918 98.6977ZM71.0589 151.293L66.9497 146.283L68.9306 144.983L73.0399 149.993L71.0589 151.293ZM82.4887 152.848L81.035 151.076L86.6359 147.401L88.0896 149.168L82.4887 152.848ZM123.761 60.082H119.054V55.8669H123.761V60.082Z" fill="#010101"/>
<path d="M144.759 54.6262C145.782 56.0308 147.104 57.242 148.649 58.1911C147.929 58.6315 147.257 59.1308 146.64 59.6826C147.894 60.5961 149.063 61.5437 150.17 62.521C151.155 61.6697 152.34 61.024 153.637 60.6301L161.813 58.1869L153.637 55.7564C152.254 55.3415 150.997 54.6463 149.963 53.7249C148.93 52.8036 148.149 51.6811 147.68 50.4451L144.953 43.1196L142.74 49.0981C141.884 51.3293 140.263 53.2622 138.108 54.6219C139.628 55.3442 141.077 56.1091 142.44 56.9164C143.298 56.2253 144.075 55.4579 144.759 54.6262Z" fill="#010101"/>
<path d="M147.305 34.8213H142.597V39.0321H147.305V34.8213Z" fill="#010101"/>
<path d="M127.782 39.6562L124.453 42.6337L133.868 51.0554L137.197 48.0779L127.782 39.6562Z" fill="#010101"/>
<path d="M162.113 76.3263L165.438 73.3519L156.041 64.9218L154.246 66.5279C156.521 69.0506 158.524 71.7609 160.227 74.6224L162.113 76.3263Z" fill="#010101"/>
<path d="M162.112 39.6541L152.697 48.0759L156.026 51.0534L165.441 42.6317L162.112 39.6541Z" fill="#010101"/>
<path d="M71.0919 154.008L67.4673 154.548L71.4625 156.383C72.1399 156.696 72.7271 157.145 73.1779 157.695C73.6288 158.245 73.931 158.881 74.061 159.553L74.8211 163.518L76.8734 159.94C77.2236 159.334 77.7256 158.808 78.3404 158.404C78.9551 158 79.6659 157.729 80.4173 157.611L84.8495 156.931L80.8496 155.1C79.9255 154.637 79.1977 153.914 78.7783 153.044H73.6525C72.8874 153.528 72.0137 153.857 71.0919 154.008ZM76.3746 153.91C76.7725 154.712 77.3459 155.435 78.061 156.035C77.2346 156.391 76.4889 156.881 75.8615 157.48C75.4379 156.693 74.8455 155.988 74.118 155.406C74.9513 155.014 75.7123 154.509 76.3746 153.91Z" fill="#010101"/>
<path d="M62.636 154.905L65.0635 155.24L65.4341 153.065L65.3818 153.061H62.9495L62.636 154.905Z" fill="#010101"/>
<path d="M73.2847 165.255L72.9124 167.426L75.34 167.759L75.7123 165.588L73.2847 165.255Z" fill="#010101"/>
<path d="M69.8212 159.219L64.1956 162.885L65.6446 164.664L71.2703 160.999L69.8212 159.219Z" fill="#010101"/>
<path d="M81.2643 160.006L79.2844 161.306L83.3942 166.314L85.3741 165.014L81.2643 160.006Z" fill="#010101"/>
<path d="M87.2891 156.06L86.9167 158.232L89.3444 158.565L89.7167 156.393L87.2891 156.06Z" fill="#010101"/>
<path d="M59.6052 153.061C59.6052 159.897 54.2894 165.489 47.7906 165.489H40.489C33.9951 165.489 28.6792 159.897 28.6792 153.061" fill="black"/>
<path d="M58.831 96.8238H155.215C155.215 96.8238 153.224 57.9872 105.662 57.9872C58.0994 57.9872 58.831 96.8238 58.831 96.8238Z" fill="white"/>
<path d="M38.0993 139.145C46.4924 139.145 53.2963 133.059 53.2963 125.552C53.2963 118.045 46.4924 111.959 38.0993 111.959C29.7063 111.959 22.9023 118.045 22.9023 125.552C22.9023 133.059 29.7063 139.145 38.0993 139.145Z" fill="#FDFDFD"/>
<path d="M183.01 153.061C183.01 159.897 177.694 165.489 171.195 165.489H163.903C157.409 165.489 152.094 159.897 152.094 153.061" fill="black"/>
<path d="M170.412 139.145C178.805 139.145 185.609 133.059 185.609 125.552C185.609 118.045 178.805 111.959 170.412 111.959C162.019 111.959 155.215 118.045 155.215 125.552C155.215 133.059 162.019 139.145 170.412 139.145Z" fill="#FDFDFD"/>
<path d="M38.0996 134.649C43.7169 134.649 48.2705 130.576 48.2705 125.552C48.2705 120.528 43.7169 116.455 38.0996 116.455C32.4824 116.455 27.9287 120.528 27.9287 125.552C27.9287 130.576 32.4824 134.649 38.0996 134.649Z" fill="black"/>
<path d="M163.604 103.818L161.599 98.0349L171.2 90.3865C170.449 88.8646 170.225 87.176 170.558 85.539C170.89 83.9021 171.765 82.3921 173.067 81.2043L179.281 75.6507C181.045 74.0741 183.438 73.1886 185.932 73.1886C188.426 73.1886 190.818 74.0741 192.582 75.6507L192.768 75.8122C194.53 77.3905 195.52 79.5301 195.52 81.7609C195.52 83.9917 194.53 86.1313 192.768 87.7096L186.554 93.2716C185.025 94.6087 183.033 95.44 180.905 95.6285C178.777 95.8169 176.641 95.3513 174.849 94.3084L163.604 103.818ZM164.834 98.8337L164.958 99.1906L173.899 91.6103L164.834 98.8337ZM174.706 90.9686L175.656 91.691C176.901 92.658 178.507 93.1719 180.156 93.131C181.804 93.0901 183.375 92.4974 184.559 91.47L190.768 85.9122C191.999 84.8082 192.691 83.3121 192.691 81.7524C192.691 80.1926 191.999 78.6966 190.768 77.5925L190.587 77.4311C189.352 76.3304 187.68 75.7124 185.936 75.7124C184.193 75.7124 182.521 76.3304 181.286 77.4311L175.043 82.9889C174.046 83.9135 173.417 85.1067 173.255 86.3836C173.092 87.6604 173.405 88.9494 174.146 90.0508L174.725 90.9431L174.706 90.9686Z" fill="black"/>
<path d="M49.5864 103.818L38.3514 94.3C36.5594 95.3447 34.4225 95.8109 32.294 95.6216C30.1655 95.4323 28.173 94.5988 26.6461 93.259L20.4324 87.6969C18.6697 86.1186 17.6797 83.979 17.6797 81.7482C17.6797 79.5174 18.6697 77.3778 20.4324 75.7995L20.6176 75.638C22.3822 74.0615 24.7743 73.1759 27.2684 73.1759C29.7625 73.1759 32.1546 74.0615 33.9191 75.638L40.1281 81.2001C41.4308 82.3887 42.3047 83.8997 42.6367 85.5375C42.9687 87.1753 42.7435 88.8645 41.9903 90.3866L51.5912 98.0349L49.5864 103.818ZM39.2873 91.6103L48.2325 99.1907L48.356 98.8338L39.2873 91.6103ZM27.2636 75.7102C26.4015 75.7059 25.5469 75.8538 24.7488 76.1454C23.9508 76.4371 23.2249 76.8668 22.6129 77.4099L22.4323 77.5713C21.2006 78.6754 20.5088 80.1715 20.5088 81.7312C20.5088 83.2909 21.2006 84.787 22.4323 85.8911L28.6413 91.4489C29.823 92.4786 31.3943 93.0733 33.0434 93.115C34.6926 93.1568 36.2989 92.6424 37.5438 91.6741L38.4939 90.9475L38.4607 90.922L39.0402 90.0297C39.7804 88.9283 40.0935 87.6392 39.9312 86.3624C39.7689 85.0856 39.1401 83.8923 38.1424 82.9677L31.9144 77.4311C31.304 76.8846 30.579 76.4512 29.7809 76.1559C28.9828 75.8606 28.1273 75.7091 27.2636 75.7102Z" fill="black"/>
<path d="M191.761 76.7002L191.575 76.5388C190.075 75.2035 188.044 74.454 185.927 74.454C183.81 74.454 181.779 75.2035 180.279 76.5388L174.065 82.0966C172.841 83.2149 172.067 84.6649 171.865 86.219C171.662 87.7731 172.041 89.3436 172.944 90.684L163.215 98.4343L164.279 101.502L174.73 92.6513C176.241 93.8321 178.196 94.4584 180.202 94.4048C182.208 94.3512 184.117 93.6217 185.547 92.3624L191.761 86.8046C193.253 85.4622 194.091 83.6458 194.091 81.7524C194.091 79.859 193.253 78.0426 191.761 76.7002Z" fill="black"/>
<path d="M21.4299 76.7002L21.6152 76.5388C23.116 75.2035 25.1468 74.454 27.2636 74.454C29.3804 74.454 31.4112 75.2035 32.912 76.5388L39.1257 82.0966C40.3492 83.2149 41.1231 84.6649 41.326 86.219C41.5289 87.7731 41.1493 89.3436 40.2468 90.684L49.9759 98.4343L48.9118 101.502L38.4606 92.6513C36.9492 93.8321 34.9947 94.4584 32.9888 94.4048C30.9829 94.3512 29.0737 93.6217 27.6437 92.3624L21.4299 86.8046C19.9371 85.4622 19.0991 83.6458 19.0991 81.7524C19.0991 79.859 19.9371 78.0426 21.4299 76.7002Z" fill="black"/>
<path d="M142.597 76.9424H147.305V81.1532H142.597V76.9424Z" fill="#010101"/>
<path d="M124.445 73.3434L133.861 64.9218L137.186 67.8961L127.775 76.3221L124.445 73.3434Z" fill="#010101"/>
<path d="M133.072 116.123H80.2749V119.85H133.072V116.123Z" fill="white"/>
<path d="M133.072 131.246H80.2749V134.972H133.072V131.246Z" fill="white"/>
<path d="M138.631 123.512H75.4104V127.591H138.631V123.512Z" fill="white"/>
<path d="M78.0751 25.9067L69.9327 22.363C68.554 21.7566 67.3505 20.8735 66.4161 19.7827C65.4816 18.6919 64.8415 17.4228 64.5456 16.0743L62.8401 8.1073L59.605 14.0815C58.7042 15.7234 57.3905 17.1564 55.7668 18.2681C54.1431 19.3798 52.2536 20.14 50.2464 20.4891L42.9639 21.7384L51.1015 25.2948C52.4811 25.8996 53.6851 26.7822 54.619 27.8734C55.5529 28.9645 56.1912 30.2345 56.4839 31.5835L58.1799 39.5378L62.1513 32.2591C62.8272 31.0246 63.8138 29.947 65.0337 29.1109C66.2536 28.2749 67.6736 27.7032 69.1821 27.4406L78.0751 25.9067ZM59.9946 27.2707C59.1047 25.7009 57.8779 24.3032 56.3841 23.1576C58.0439 22.3493 59.5534 21.3159 60.8592 20.094C61.7073 21.6815 62.8952 23.1048 64.3556 24.2836C62.7101 25.0327 61.2321 26.0451 59.9946 27.2707Z" fill="#010101"/>
<path d="M33.8764 18.2158L38.7837 18.7979L38.1329 23.1873L33.2256 22.6051L33.8764 18.2158Z" fill="#010101"/>
<path d="M55.1538 43.073L60.0801 43.6466L59.4293 48.0359L54.5029 47.4708L55.1538 43.073Z" fill="#010101"/>
<path d="M41.5244 5.07344L45.4579 2.37952L53.9661 12.3224L50.0374 15.0163L41.5244 5.07344Z" fill="#010101"/>
<path d="M36.7739 37.0775L47.8902 29.4631L50.8973 32.9771L39.7858 40.5915L36.7739 37.0775Z" fill="#010101"/>
<path d="M67.054 34.902L70.9874 32.2081L79.4956 42.151L75.5669 44.8407L67.054 34.902Z" fill="#010101"/>
<path d="M70.123 14.2429L81.2393 6.62854L84.2464 10.1468L73.1349 17.7569L70.123 14.2429Z" fill="#010101"/>
<path d="M82.9445 24.0414L87.8518 24.6235L87.201 29.0128L82.2937 28.4307L82.9445 24.0414Z" fill="#010101"/>
<path d="M61.8838 0.0712628L61.1069 5.36316L65.081 5.82992L65.8579 0.538025L61.8838 0.0712628Z" fill="#010101"/>
<path d="M170.412 134.649C176.029 134.649 180.583 130.576 180.583 125.552C180.583 120.528 176.029 116.455 170.412 116.455C164.794 116.455 160.241 120.528 160.241 125.552C160.241 130.576 164.794 134.649 170.412 134.649Z" fill="black"/>
</g>
<path d="M35.4235 216.294V223.89H0.89502V177.352H13.0183V216.294H35.4235ZM82.194 223.548C79.2783 224.141 76.6183 224.438 74.2141 224.438C69.4569 224.438 66.4133 222.978 65.0833 220.058C62.8837 221.518 60.6841 222.636 58.4845 223.411C56.3361 224.141 54.0342 224.506 51.5788 224.506C49.3281 224.506 47.3075 224.096 45.5171 223.274C43.7268 222.453 42.3201 221.335 41.297 219.921C40.3251 218.461 39.8391 216.864 39.8391 215.13C39.8391 212.393 40.632 210.203 42.2178 208.56C43.8035 206.872 45.9775 205.526 48.7398 204.522C51.5021 203.473 55.5943 202.264 61.0166 200.895L64.2392 200.074V199.184C64.2392 194.667 62.0396 192.409 57.6405 192.409C55.4409 192.409 53.1646 192.842 50.8115 193.709C48.4585 194.53 45.7729 195.945 42.7549 197.952L40.146 190.835C47.2052 186.728 54.2644 184.675 61.3235 184.675C66.0808 184.675 69.6871 185.839 72.1424 188.165C74.6489 190.447 75.9022 194.325 75.9022 199.8V214.035C75.9022 215.039 76.1068 215.769 76.516 216.225C76.9764 216.636 77.7181 216.841 78.7412 216.841C79.6108 216.841 80.6083 216.704 81.7335 216.431L82.194 223.548ZM51.5788 213.83C51.5788 215.929 52.8832 216.978 55.492 216.978C56.822 216.978 58.1776 216.727 59.5587 216.225C60.9399 215.678 62.5 214.902 64.2392 213.898V206.028L62.2443 206.644C58.2032 207.876 55.4153 209.016 53.8807 210.066C52.3461 211.07 51.5788 212.324 51.5788 213.83ZM128.277 223.548C125.361 224.141 122.701 224.438 120.297 224.438C115.54 224.438 112.496 222.978 111.166 220.058C108.967 221.518 106.767 222.636 104.567 223.411C102.419 224.141 100.117 224.506 97.6617 224.506C95.4109 224.506 93.3904 224.096 91.6 223.274C89.8096 222.453 88.4029 221.335 87.3799 219.921C86.408 218.461 85.922 216.864 85.922 215.13C85.922 212.393 86.7149 210.203 88.3006 208.56C89.8864 206.872 92.0604 205.526 94.8227 204.522C97.5849 203.473 101.677 202.264 107.099 200.895L110.322 200.074V199.184C110.322 194.667 108.123 192.409 103.723 192.409C101.524 192.409 99.2474 192.842 96.8944 193.709C94.5413 194.53 91.8558 195.945 88.8377 197.952L86.2289 190.835C93.2881 186.728 100.347 184.675 107.406 184.675C112.164 184.675 115.77 185.839 118.225 188.165C120.732 190.447 121.985 194.325 121.985 199.8V214.035C121.985 215.039 122.19 215.769 122.599 216.225C123.059 216.636 123.801 216.841 124.824 216.841C125.694 216.841 126.691 216.704 127.817 216.431L128.277 223.548ZM97.6617 213.83C97.6617 215.929 98.9661 216.978 101.575 216.978C102.905 216.978 104.26 216.727 105.642 216.225C107.023 215.678 108.583 214.902 110.322 213.898V206.028L108.327 206.644C104.286 207.876 101.498 209.016 99.9636 210.066C98.429 211.07 97.6617 212.324 97.6617 213.83ZM157.479 184.675C161.317 184.675 164.718 185.474 167.685 187.07C170.652 188.622 172.952 190.926 174.591 193.983C176.279 196.994 177.123 200.598 177.123 204.796C177.123 211.64 174.923 216.682 170.524 219.921C166.176 223.16 160.396 224.78 153.182 224.78C150.727 224.78 148.655 224.575 146.967 224.164V239.837H135.228V185.565H143.975L145.126 188.439C148.809 185.93 152.927 184.675 157.479 184.675ZM152.415 217.252C161.01 217.252 165.306 213.009 165.306 204.522C165.306 200.097 164.437 196.948 162.698 195.078C161.01 193.207 158.835 192.272 156.175 192.272C154.333 192.272 152.696 192.477 151.264 192.888C149.832 193.253 148.399 193.869 146.967 194.736V216.636C148.911 217.047 150.727 217.252 152.415 217.252ZM198.828 224.78C195.963 224.78 193.201 224.529 190.541 224.027C187.881 223.525 185.554 222.864 183.559 222.043L185.937 214.788C190.49 216.431 194.736 217.252 198.674 217.252C201.027 217.252 202.92 216.932 204.352 216.294C205.836 215.609 206.578 214.583 206.578 213.214C206.578 212.073 205.887 211.138 204.506 210.408C203.176 209.678 201.053 208.857 198.137 207.944C195.273 207.032 192.945 206.188 191.155 205.412C189.364 204.591 187.804 203.496 186.474 202.127C185.195 200.713 184.556 198.979 184.556 196.926C184.556 192.911 186.193 189.876 189.467 187.823C192.741 185.724 197.191 184.675 202.818 184.675C205.171 184.675 207.549 184.903 209.954 185.359C212.358 185.77 214.481 186.363 216.322 187.139L213.867 194.462C210.184 193.002 206.603 192.272 203.125 192.272C200.925 192.272 199.211 192.568 197.984 193.161C196.756 193.709 196.142 194.553 196.142 195.694C196.142 196.834 196.782 197.747 198.061 198.431C199.339 199.07 201.36 199.8 204.122 200.621C206.987 201.443 209.365 202.264 211.258 203.085C213.151 203.906 214.762 205.093 216.092 206.644C217.473 208.195 218.164 210.157 218.164 212.53C218.164 216.362 216.501 219.373 213.176 221.563C209.851 223.708 205.069 224.78 198.828 224.78Z" fill="black"/>
<defs>
<clipPath id="clip0">
<rect width="184.278" height="167.762" fill="white" transform="translate(14)"/>
</clipPath>
</defs>
</svg>
